<?xml version="1.0" encoding="UTF-8"?>
<svg id="_Слой_3" data-name="Слой 3" xmlns="http://www.w3.org/2000/svg" viewBox="0 0 1013.86 649.87">
  <defs>
    <style>
      .cls-1 {
        fill: #fff;
        fill-rule: evenodd;
      }

      .cls-2 {
        fill: #121212;
      }
    </style>
  </defs>
  <g>
    <path class="cls-1" d="M179.42,.57c-13.2,1.2-31.2,5.9-43.7,11.6l-6.8,3v13.7h-10.7l-22.2,35.5c-23.6,37.7-24.1,38.6-31.9,59.5-10.7,28.5-17.2,52.4-29.1,107.5C6.42,363.77-1.48,424.37,.22,499.87c1.3,57.3,9.5,90,28.5,113.9,13.5,16.9,32.1,27.5,59.2,33.7,33.3,7.6,63-2.8,90.6-31.8,17-17.8,23.7-30.1,40.9-74.4,27.7-71.3,41.5-109.7,41.5-115.8,0-1.2,1-2.8,2.3-3.5,1.2-.8,4.4-2.8,7-4.4l4.8-3,3.2,3c12.5,11.6,29.8,20.4,46.8,23.9,12,2.4,31.3,1.5,43.2-2,14.2-4.2,29.7-12.6,42.9-23.2l6.7-5.4h177.9l10.6,8c12,9,28.9,17.7,41.1,21.2,10.7,3.1,35.2,3.3,46,.5,10.3-2.7,29.8-12.7,37.5-19.2,3.6-3,7-5.7,7.7-6.1,.6-.3,4.1,1.4,7.7,3.8,4.7,3,6.6,4.9,6.6,6.4,0,6.3,14.8,47.3,41.8,116.4,17.9,45.9,24.1,56.9,43.2,76.1,32.1,32.3,64.3,39.5,107.1,24,22.4-8.2,40.5-24.3,51.2-45.6,11-22.1,16.3-51.2,17.4-95.5,1.8-75.7-6.3-138-35.7-273.5-9.6-43.8-15.1-65.3-23-88.5-10-29.8-13.1-36.1-34.6-70.5-11-17.6-21.1-33.7-22.5-35.7-2.3-3.6-2.7-3.8-7.6-3.8h-5.3V15.17l-6-2.7c-29-13-62.9-15.9-99.5-8.4-12.1,2.4-25.7,6.6-26.7,8.2-.4,.6-.8,3.7-.8,6.8v5.8h-5.7c-5.9,0-12.3,3-12.3,5.7,0,1-8.4,1.3-38.5,1.3h-38.5l-.2,84.2-.3,84.3-2.5,5c-3.1,6.4-9.1,12.4-15.5,15.5l-5,2.5h-253l-4.5-2.3c-7.2-3.5-11.4-7.5-15.1-14.4l-3.4-6.3-.3-84.3-.2-84.2h-74.1l-4.6-3.5c-4-3.1-5.3-3.5-10.4-3.5h-5.9v-5.8c0-3.1-.4-6.2-.8-6.8-1.8-2.7-24.6-8.5-42.5-10.9-10.7-1.4-28.8-1.7-39.2-.8ZM843.02,83.97c6.7,3.6,9.7,6.8,13.7,14.3,2.3,4.4,2.7,6.3,2.7,13.6s-.5,9.4-2.5,13.5c-3.1,6.4-9.1,12.4-15.5,15.5-6.9,3.3-19.9,3.4-26.5,.2-7.1-3.4-11.3-7.5-15.1-14.4-3.1-5.8-3.4-7-3.4-14.8,0-7.3,.4-9.2,2.7-13.6,3.8-7.3,6.9-10.6,12.9-13.9,7.1-3.8,10.2-4.5,18.2-4,5.1,.3,8.1,1.1,12.8,3.6ZM212.82,105.47c2,2.5,2.1,4,2.1,21.4v18.7l-3.8,5.9c-2.1,3.2-6.7,8.5-10.1,11.6q-6.2,5.8-12.6,5.8t-12.6-5.8c-3.4-3.1-8-8.4-10.1-11.6l-3.8-5.9v-18.7c0-17.4,.1-18.9,2.1-21.4l2-2.6h44.8l2,2.6Zm558.2,50.5c6.7,3.6,9.7,6.8,13.7,14.3,2.3,4.4,2.7,6.3,2.7,13.6s-.5,9.4-2.5,13.5c-3.1,6.4-9.1,12.4-15.5,15.5-6.9,3.3-19.9,3.4-26.5,.2-7.1-3.4-11.3-7.5-15.1-14.4-3.1-5.8-3.4-7-3.4-14.8,0-7.3,.4-9.2,2.7-13.6,3.8-7.3,6.9-10.6,12.9-13.9,7.1-3.8,10.2-4.5,18.2-4,5.1,.3,8.1,1.1,12.8,3.6Zm144,0c6.7,3.6,9.7,6.8,13.7,14.3,2.3,4.4,2.7,6.3,2.7,13.6s-.5,9.4-2.5,13.5c-3.1,6.4-9.1,12.4-15.5,15.5-6.9,3.3-19.9,3.4-26.5,.2-7.1-3.4-11.3-7.5-15.1-14.4-3.1-5.8-3.4-7-3.4-14.8,0-7.3,.4-9.2,2.7-13.6,3.8-7.3,6.9-10.6,12.9-13.9,7.1-3.8,10.2-4.5,18.2-4,5.1,.3,8.1,1.1,12.8,3.6Zm-762.5,7.7c3.2,2.1,8.5,6.7,11.7,10.1q5.7,6.2,5.7,12.6,0,6.4-5.7,12.6c-3.2,3.4-8.5,8-11.7,10.1l-5.9,3.8h-18.7c-17.4,0-18.9-.1-21.4-2.1l-2.6-2v-44.8l2.6-2c2.5-2,4-2.1,21.4-2.1h18.7l5.9,3.8Zm116.8-1.7l2.6,2v44.8l-2.6,2c-2.5,2-4,2.1-21.4,2.1h-18.7l-5.9-3.8c-3.2-2.1-8.5-6.7-11.6-10.1q-5.8-6.2-5.8-12.6,0-6.4,5.8-12.6c3.1-3.4,8.4-8,11.6-10.1l5.9-3.8h18.7c17.4,0,18.9,.1,21.4,2.1Zm-68.3,48.6c3.4,3.2,8,8.5,10.1,11.7l3.8,5.9v18.7c0,17.4-.1,18.9-2.1,21.4l-2,2.6h-44.8l-2-2.6c-2-2.5-2.1-4-2.1-21.4v-18.7l3.8-5.9c2.1-3.2,6.7-8.5,10.1-11.7q6.2-5.7,12.6-5.7,6.4,0,12.6,5.7Zm642,17.4c6.7,3.6,9.7,6.8,13.7,14.3,2.3,4.4,2.7,6.3,2.7,13.6s-.5,9.4-2.5,13.5c-3.1,6.4-9.1,12.4-15.5,15.5-6.9,3.3-19.9,3.4-26.5,.2-7.1-3.4-11.3-7.5-15.1-14.4-3.1-5.8-3.4-7-3.4-14.8,0-7.3,.4-9.2,2.7-13.6,3.8-7.3,6.9-10.6,12.9-13.9,7.1-3.8,10.2-4.5,18.2-4,5.1,.3,8.1,1.1,12.8,3.6Zm-485.6,52.4c18.2,3.8,35.2,17,43.4,33.5,12.6,25.6,8,54.2-11.8,74.1-25.2,25.2-65,25.2-90.2,0-25.2-25.2-25.2-65,0-90.2,15.6-15.5,37-21.9,58.6-17.4Zm326,0c28.8,6,50.5,32.9,50.5,62.5,0,34.9-29.1,64-64,64s-64-29.1-64-64c0-23.7,14.1-46.5,35-56.9,13.9-6.8,27.9-8.7,42.5-5.6Z"/>
    <path class="cls-1" d="M373.12,114.77c.3,82,.3,83,2.4,85.7,1.1,1.5,3.3,3.7,4.8,4.8,2.7,2.1,3.1,2.1,126.6,2.1s123.9,0,126.6-2.1c1.5-1.1,3.7-3.3,4.8-4.8,2.1-2.7,2.1-3.7,2.4-85.7l.2-82.9H372.92l.2,82.9Z"/>
  </g>
  <g>
    <path class="cls-2" d="M431.68,185.83c15.62-27.32,43.86-46.1,75.82-46.1s60.2,18.77,75.82,46.1c3.83,6.7,14.2,.66,10.36-6.06-13.57-23.74-35.86-42.22-62.56-49.06-26.84-6.88-56.02-1.45-78.65,14.53-12.84,9.07-23.36,20.9-31.15,34.53-3.84,6.71,6.52,12.77,10.36,6.06h0Z"/>
    <g>
      <path class="cls-2" d="M436.02,65.24l31,31c5.47,5.47,13.96-3.02,8.49-8.49-10.33-10.33-20.67-20.67-31-31-5.47-5.47-13.96,3.02-8.49,8.49h0Z"/>
      <path class="cls-2" d="M444.51,96.24l31-31c5.47-5.47-3.02-13.96-8.49-8.49-10.33,10.33-20.67,20.67-31,31-5.47,5.47,3.02,13.96,8.49,8.49h0Z"/>
    </g>
    <g>
      <path class="cls-2" d="M538.02,65.24l31,31c5.47,5.47,13.96-3.02,8.49-8.49l-31-31c-5.47-5.47-13.96,3.02-8.49,8.49h0Z"/>
      <path class="cls-2" d="M546.51,96.24l31-31c5.47-5.47-3.02-13.96-8.49-8.49l-31,31c-5.47,5.47,3.02,13.96,8.49,8.49h0Z"/>
    </g>
  </g>
</svg>