<?xml version="1.0" encoding="utf-8"?>
<!-- Generator: Adobe Illustrator 26.5.0, SVG Export Plug-In . SVG Version: 6.00 Build 0)  -->
<svg version="1.1" id="Слой_1" xmlns="http://www.w3.org/2000/svg" xmlns:xlink="http://www.w3.org/1999/xlink" x="0px" y="0px"
	 viewBox="0 0 456 456" style="enable-background:new 0 0 456 456;" xml:space="preserve">
<style type="text/css">
	.st0{fill-rule:evenodd;clip-rule:evenodd;fill:#FFFFFF;}
</style>
<g>
	<path class="st0" d="M341.2,204.8c-2.3-10.5-3.6-15.7-5.4-21.2c-2.4-7.1-3.1-8.7-8.3-17c-2.6-4.2-5.1-8.2-5.4-8.7
		c-0.5-0.9-0.5-0.9-1.7-0.9h-1.3v-2c0-0.9-0.5-1.5-1.3-1.8l-0.2-0.1c-7-3.1-15.2-3.9-24-2.1c-2.9,0.5-6.2,1.6-6.4,2.1
		c-0.1,0.1-0.2,0.9-0.2,1.6v1.4h-1.4c-1.4,0-3,0.8-3,1.4c0,0.2-2.1,0.2-9.3,0.2h-7.1c-1.2,0-2.1,0.9-2.1,2.1v18.2l-0.1,19.8
		c0,0.2-0.1,0.5-0.2,0.9l-0.5,0.8c-0.8,1.5-2.2,3-3.7,3.7l-0.8,0.4c-0.2,0.1-0.5,0.2-0.9,0.2h-60.2l-1.2-0.5
		c-1.7-0.9-2.7-1.7-3.6-3.5l-0.5-1.1c-0.1-0.2-0.2-0.5-0.2-1.1v-19.8v-18.2c0-1.2-0.9-2.1-2.1-2.1h-15.2c-0.5,0-0.9-0.1-1.3-0.4
		c-1.2-0.8-2.4-1.3-3.7-1.3h-0.9v-1.2c0-0.8-0.1-1.5-0.2-1.6c-0.4-0.5-5.9-2.1-10.2-2.6c-2.5-0.4-6.9-0.4-9.3-0.2
		c-3.1,0.2-7.5,1.4-10.5,2.7l-0.4,0.1c-0.8,0.4-1.3,1.1-1.3,1.8v2.1h-2.8l-5.3,8.6c-5.6,9-5.7,9.3-7.6,14.3
		c-2.5,6.9-4.1,12.5-7,25.9c-6.9,31.8-8.8,46.4-8.4,64.5c0.2,13.8,2.3,21.7,6.9,27.3c3.4,4,7.6,6.6,14.2,8.2
		c8,1.8,15.2-0.5,21.8-7.6c4.1-4.2,5.6-7.4,9.9-18c6.6-17.2,10.1-26.3,10.1-27.8c0-0.2,0.2-0.5,0.5-0.9c0.2-0.2,1.1-0.5,1.6-1.2
		l1.2-0.8l0.8,0.8c3,2.7,7.1,4.9,11.3,5.7c2.9,0.5,7.5,0.4,10.4-0.5c3.4-1.1,7.1-3,10.3-5.6l1.1-0.9c0.4-0.2,0.8-0.5,1.3-0.5h41.1
		c0.5,0,0.9,0.1,1.3,0.4l2.1,1.5c2.9,2.2,6.9,4.2,10,5.2c2.5,0.8,8.4,0.8,11,0.1c2.5-0.5,7.1-3,9-4.7c0.2-0.2,0.5-0.5,0.9-0.8
		c0.5-0.5,1.6-0.5,2.4-0.1c0.1,0.1,0.4,0.2,0.5,0.2c1.2,0.8,1.6,1.2,1.6,1.5c0,1.5,3.5,11.4,10.1,27.9c4.2,11,5.7,13.6,10.4,18.2
		c7.7,7.7,15.4,9.4,25.8,5.7c5.4-2.1,9.9-5.9,12.3-10.9c2.6-5.3,3.9-12.3,4.1-23C350.2,252.3,348.4,237.3,341.2,204.8z M145.1,180.7
		c0-4.1,0-4.4,0.5-5.2l0.5-0.5h10.7l0.5,0.5c0.5,0.5,0.5,1.1,0.5,5.2v3.9c0,0.4-0.1,0.8-0.4,1.2l-0.5,0.9c-0.5,0.8-1.6,2.1-2.4,2.7
		c-1.5,1.4-1.5,1.4-3,1.4c-1.5,0-1.5,0-3-1.4c-0.8-0.8-1.8-2.1-2.4-2.7l-0.5-0.9c-0.2-0.4-0.4-0.8-0.4-1.2L145.1,180.7L145.1,180.7z
		 M141.9,200.9c-0.4,0.2-0.8,0.4-1.2,0.4h-3.9c-4.1,0-4.4,0-5.2-0.5l-0.5-0.5v-10.7l0.5-0.5c0.5-0.5,1.1-0.5,5.2-0.5h3.9
		c0.4,0,0.8,0.1,1.2,0.4l0.9,0.5c0.8,0.5,2.1,1.6,2.7,2.4c1.4,1.5,1.4,1.5,1.4,3c0,1.5,0,1.5-1.4,3c-0.8,0.9-2.1,1.8-2.7,2.4
		L141.9,200.9z M157.9,209.5c0,4.1,0,4.4-0.5,5.2l-0.5,0.5h-10.7l-0.5-0.5c-0.5-0.5-0.5-1.1-0.5-5.2v-3.9c0-0.4,0.1-0.8,0.4-1.2
		l0.5-0.9c0.5-0.8,1.6-2.1,2.4-2.7c1.5-1.4,1.5-1.4,3-1.4c1.5,0,1.5,0,3,1.4c0.8,0.8,1.8,2.1,2.4,2.7l0.5,0.9
		c0.2,0.4,0.4,0.8,0.4,1.2L157.9,209.5L157.9,209.5z M171.6,200.3l-0.5,0.5c-0.5,0.5-1.1,0.5-5.2,0.5h-3.9c-0.4,0-0.8-0.1-1.2-0.4
		l-0.9-0.5c-0.8-0.5-2.1-1.6-2.7-2.4c-1.4-1.5-1.4-1.5-1.4-3c0-1.5,0-1.5,1.4-3c0.8-0.8,2.1-1.8,2.7-2.4l0.9-0.5
		c0.4-0.2,0.8-0.4,1.2-0.4h3.9c4.1,0,4.4,0,5.2,0.5l0.5,0.5V200.3z M199.8,243.4c-6,6-15.7,6-21.7,0c-6-6-6-15.7,0-21.7
		c3.7-3.7,8.9-5.3,14.1-4.1c4.4,0.9,8.6,4.1,10.4,8C205.6,231.6,204.5,238.4,199.8,243.4z M267.3,247.9c-8.4,0-15.4-7-15.4-15.4
		c0-5.6,3.4-11.2,8.4-13.6c3.4-1.6,6.6-2.2,10.2-1.4c6.9,1.5,12.2,7.9,12.2,15.2C282.6,240.9,275.7,247.9,267.3,247.9z M294.9,197.6
		c-0.8,1.5-2.3,3-3.7,3.7c-1.6,0.8-4.8,0.9-6.4,0c-1.7-0.9-2.7-1.7-3.6-3.5c-0.8-1.4-0.9-1.6-0.9-3.5c0-1.7,0.1-2.3,0.5-3.4
		c0.9-1.7,1.6-2.5,3.1-3.4c1.7-0.9,2.4-1.2,4.4-1.1c1.3,0.1,1.8,0.2,3.1,0.9c1.6,0.9,2.4,1.6,3.4,3.4c0.5,1.1,0.5,1.5,0.5,3.4
		C295.4,196,295.3,196.6,294.9,197.6z M312.1,214.8c-0.8,1.5-2.3,3-3.7,3.7c-1.6,0.8-4.8,0.8-6.4,0c-1.7-0.9-2.7-1.7-3.6-3.5
		c-0.8-1.4-0.8-1.6-0.8-3.5c0-1.7,0.1-2.3,0.5-3.4c0.9-1.7,1.6-2.5,3.1-3.4c1.7-0.9,2.4-1.2,4.4-1.1c1.3,0.1,1.8,0.2,3.1,0.9
		c1.6,0.9,2.4,1.6,3.4,3.4c0.5,1.1,0.5,1.5,0.5,3.4C312.7,213.4,312.6,213.8,312.1,214.8z M312.1,180.2c-0.8,1.5-2.3,3-3.7,3.7
		c-1.6,0.8-4.8,0.9-6.4,0c-1.7-0.9-2.7-1.7-3.6-3.5c-0.8-1.4-0.8-1.6-0.8-3.5c0-1.7,0.1-2.3,0.5-3.4c0.9-1.7,1.6-2.5,3.1-3.4
		c1.7-0.9,2.4-1.2,4.4-1.1c1.3,0.1,1.8,0.2,3.1,0.9c1.6,0.9,2.4,1.6,3.4,3.4c0.5,1.1,0.5,1.5,0.5,3.4
		C312.5,178.5,312.6,179.3,312.1,180.2z M329.4,197.6c-0.8,1.5-2.3,3-3.7,3.7c-1.6,0.8-4.8,0.9-6.4,0c-1.7-0.9-2.7-1.7-3.6-3.5
		c-0.8-1.4-0.8-1.6-0.8-3.5c0-1.7,0.1-2.3,0.5-3.4c0.9-1.7,1.6-2.5,3.1-3.4c1.7-0.9,2.5-1.2,4.4-1.1c1.3,0.1,1.8,0.2,3.1,0.9
		c1.6,0.9,2.4,1.6,3.4,3.4c0.5,1.1,0.5,1.5,0.5,3.4C330.1,196,329.9,196.6,329.4,197.6z"/>
	<path class="st0" d="M260.2,159.8v18c-0.1,19.7-0.1,19.9-0.5,20.6c-0.2,0.4-0.8,0.9-1.2,1.2c-0.5,0.5-0.8,0.5-30.4,0.5
		s-29.9,0-30.4-0.5c-0.4-0.2-0.9-0.8-1.2-1.2c-0.5-0.5-0.5-0.9-0.5-20.6v-18c0-1.2,0.9-2.1,2.1-2.1h60.3
		C259.3,157.8,260.2,158.7,260.2,159.8z"/>
</g>
</svg>
