<?xml version="1.0" encoding="utf-8"?>
<!-- Generator: Adobe Illustrator 26.5.0, SVG Export Plug-In . SVG Version: 6.00 Build 0)  -->
<svg version="1.1" id="Слой_1" xmlns="http://www.w3.org/2000/svg" xmlns:xlink="http://www.w3.org/1999/xlink" x="0px" y="0px"
	 viewBox="0 0 456 456" style="enable-background:new 0 0 456 456;" xml:space="preserve">
<style type="text/css">
	.st0{fill-rule:evenodd;clip-rule:evenodd;fill:#FFFFFF;}
</style>
<g>
	<path class="st0" d="M432.4,186c-4.1-19-6.6-28.3-9.9-38.4c-4.3-12.8-5.6-15.7-14.9-30.6c-4.7-7.6-9.1-14.7-9.7-15.7
		c-0.8-1.7-1-1.7-3.1-1.7h-2.3V96c0-1.7-0.8-2.7-2.3-3.3l-0.4-0.2c-12.6-5.6-27.5-7-43.2-3.7c-5.2,1-11.1,2.9-11.6,3.7
		c-0.2,0.2-0.4,1.7-0.4,2.9v2.5h-2.5c-2.5,0-5.4,1.4-5.4,2.5c0,0.4-3.7,0.4-16.7,0.4h-12.8c-2.1,0-3.7,1.7-3.7,3.7v32.8l-0.2,35.7
		c0,0.4-0.2,1-0.4,1.7l-1,1.4c-1.4,2.7-3.9,5.4-6.8,6.8l-1.4,0.6c-0.4,0.2-1,0.4-1.7,0.4H173.3l-2.1-1c-3.1-1.7-5-3.1-6.6-6.4
		l-1-1.9c-0.2-0.4-0.4-1-0.4-1.9v-35.7v-32.8c0-2.1-1.7-3.7-3.7-3.7h-27.3c-0.8,0-1.7-0.2-2.3-0.6c-2.1-1.4-4.3-2.3-6.8-2.3h-1.7
		v-2.5c0-1.4-0.2-2.7-0.4-2.9c-0.6-1-10.7-3.7-18.4-4.7c-4.5-0.6-12.4-0.6-16.9-0.4c-5.6,0.4-13.6,2.5-19,5l-0.6,0.2
		c-1.4,0.6-2.3,1.9-2.3,3.3v3.7h-4.7l-9.5,15.5c-10.1,16.3-10.3,16.7-13.8,25.8c-4.5,12.4-7.4,22.7-12.6,46.7
		C10.8,244.7,7.3,271.1,8.1,303.9c0.4,25,4.1,39.2,12.4,49.3c6,7.2,13.8,12,25.6,14.7c14.5,3.3,27.5-1,39.4-13.8
		c7.4-7.6,10.1-13.2,17.8-32.4c12-31,18.2-47.5,18.2-50.2c0-0.4,0.4-1,1-1.7c0.4-0.4,1.9-1,2.9-2.1l2.1-1.4l1.4,1.4
		c5.4,5,12.8,8.9,20.4,10.3c5.2,1,13.6,0.6,18.8-0.8c6.2-1.9,12.8-5.4,18.6-10.1l1.9-1.7c0.6-0.4,1.4-0.8,2.3-0.8h74.3
		c0.8,0,1.7,0.2,2.3,0.6l3.7,2.7c5.2,3.9,12.4,7.6,18,9.3c4.5,1.4,15.1,1.4,19.8,0.2c4.5-1,12.8-5.4,16.3-8.5c0.4-0.4,1-0.8,1.7-1.4
		c1-0.8,2.9-1,4.3-0.2c0.2,0.2,0.6,0.4,0.8,0.4c2.1,1.4,2.9,2.1,2.9,2.7c0,2.7,6.4,20.6,18.2,50.4c7.6,19.8,10.3,24.6,18.8,33
		c14,14,27.9,17.1,46.5,10.3c9.7-3.7,17.8-10.7,22.1-19.6c4.7-9.5,7-22.1,7.4-41.5C448.7,271.9,445.4,244.7,432.4,186z M78.3,142.5
		c0-7.4,0-8.1,0.8-9.3l0.8-1h19.4l0.8,1c0.8,1,0.8,1.9,0.8,9.3v7c0,0.6-0.2,1.4-0.6,2.1l-1,1.7c-0.8,1.4-2.9,3.7-4.3,5
		c-2.7,2.5-2.7,2.5-5.4,2.5s-2.7,0-5.4-2.5c-1.4-1.4-3.3-3.7-4.3-5l-1-1.7c-0.4-0.6-0.6-1.4-0.6-2.1L78.3,142.5L78.3,142.5z
		 M72.5,179c-0.6,0.4-1.4,0.6-2.1,0.6h-7c-7.4,0-8.1,0-9.3-0.8l-1-0.8v-19.4l1-0.8c1-0.8,1.9-0.8,9.3-0.8h7c0.6,0,1.4,0.2,2.1,0.6
		l1.7,1c1.4,0.8,3.7,2.9,5,4.3c2.5,2.7,2.5,2.7,2.5,5.4c0,2.7,0,2.7-2.5,5.4c-1.4,1.7-3.7,3.3-5,4.3L72.5,179z M101.4,194.5
		c0,7.4,0,8.1-0.8,9.3l-0.8,1H80.4l-0.8-1c-0.8-1-0.8-1.9-0.8-9.3v-7c0-0.6,0.2-1.4,0.6-2.1l1-1.7c0.8-1.4,2.9-3.7,4.3-5
		c2.7-2.5,2.7-2.5,5.4-2.5s2.7,0,5.4,2.5c1.4,1.4,3.3,3.7,4.3,5l1,1.7c0.4,0.6,0.6,1.4,0.6,2.1L101.4,194.5L101.4,194.5z M126,178
		l-1,0.8c-1,0.8-1.9,0.8-9.3,0.8h-7c-0.6,0-1.4-0.2-2.1-0.6l-1.7-1c-1.4-0.8-3.7-2.9-5-4.3c-2.5-2.7-2.5-2.7-2.5-5.4s0-2.7,2.5-5.4
		c1.4-1.4,3.7-3.3,5-4.3l1.7-1c0.6-0.4,1.4-0.6,2.1-0.6h7c7.4,0,8.1,0,9.3,0.8l1,0.8V178z M177,255.8c-10.9,10.9-28.3,10.9-39.2,0
		s-10.9-28.3,0-39.2c6.8-6.8,16.1-9.5,25.4-7.4c7.8,1.7,15.5,7.4,18.8,14.5C187.5,234.5,185.5,246.9,177,255.8z M299,263.9
		c-15.1,0-27.9-12.6-27.9-27.9c0-10.1,6.2-20.2,15.1-24.6c6.2-2.9,12-3.9,18.4-2.5c12.4,2.7,21.9,14.2,21.9,27.3
		C326.5,251.3,314.1,263.9,299,263.9z M348.8,173c-1.4,2.7-4.1,5.4-6.8,6.8c-2.9,1.4-8.7,1.7-11.6,0c-3.1-1.7-5-3.1-6.6-6.4
		c-1.4-2.5-1.7-2.9-1.7-6.4c0-3.1,0.2-4.1,1-6c1.7-3.1,2.9-4.5,5.6-6.2c3.1-1.7,4.3-2.1,7.8-1.9c2.3,0.2,3.3,0.4,5.6,1.7
		c2.9,1.7,4.3,2.9,6,6.2c0.8,1.9,1,2.7,1,6C349.8,170.1,349.6,171.2,348.8,173z M380,204.2c-1.4,2.7-4.1,5.4-6.8,6.8
		c-2.9,1.4-8.7,1.4-11.6,0c-3.1-1.7-5-3.1-6.6-6.4c-1.4-2.5-1.4-2.9-1.4-6.4c0-3.1,0.2-4.1,1-6c1.7-3.1,2.9-4.5,5.6-6.2
		c3.1-1.7,4.3-2.1,7.8-1.9c2.3,0.2,3.3,0.4,5.6,1.7c2.9,1.7,4.3,2.9,6,6.2c0.8,1.9,1,2.7,1,6C381,201.5,380.8,202.3,380,204.2z
		 M380,141.6c-1.4,2.7-4.1,5.4-6.8,6.8c-2.9,1.4-8.7,1.7-11.6,0c-3.1-1.7-5-3.1-6.6-6.4c-1.4-2.5-1.4-2.9-1.4-6.4c0-3.1,0.2-4.1,1-6
		c1.7-3.1,2.9-4.5,5.6-6.2c3.1-1.7,4.3-2.1,7.8-1.9c2.3,0.2,3.3,0.4,5.6,1.7c2.9,1.7,4.3,2.9,6,6.2c0.8,1.9,1,2.7,1,6
		S380.8,140,380,141.6z M411.1,173c-1.4,2.7-4.1,5.4-6.8,6.8c-2.9,1.4-8.7,1.7-11.6,0c-3.1-1.7-5-3.1-6.6-6.4
		c-1.4-2.5-1.4-2.9-1.4-6.4c0-3.1,0.2-4.1,1-6c1.7-3.1,2.9-4.5,5.6-6.2c3.1-1.7,4.5-2.1,7.8-1.9c2.3,0.2,3.3,0.4,5.6,1.7
		c2.9,1.7,4.3,2.9,6,6.2c0.8,1.9,1,2.7,1,6C412.4,170.1,412.2,171.2,411.1,173z"/>
	<path class="st0" d="M286.2,104.9v32.4c-0.2,35.5-0.2,35.9-1,37.2c-0.4,0.6-1.4,1.7-2.1,2.1c-1,0.8-1.4,0.8-54.9,0.8
		s-53.9,0-54.9-0.8c-0.6-0.4-1.7-1.4-2.1-2.1c-0.8-1-0.8-1.7-1-37.2v-32.4c0-2.1,1.7-3.7,3.7-3.7h108.8
		C284.6,101.2,286.2,102.8,286.2,104.9z"/>
</g>
</svg>
